# xmcd CD database file
#
# Track frame offsets:
#	150
#	16384
#	32473
#	52528
#	69681
#	86184
#	103899
#	121373
#	136410
#	155873
#	173898
#	191022
#	211825
#	232448
#	245571
#	258279
#	276282
#	292626
#	309483
#	327087
#
# Disc length: 4579 seconds
#
# Revision: 8
# Processed by: cddbd v1.5.1PL0 Copyright (c) Steve Scherf et al.
# Submitted via: CDex 1.40Release
#
DISCID=2311e114
DTITLE=LeAnn Rimes - The Best Of
DYEAR=2004
DGENRE=Country
TTITLE0=Can't Fight The Moonlight
TTITLE1=Life Goes On
TTITLE2=How Do I Live
TTITLE3=I Need You
TTITLE4=We Can
TTITLE5=Last Thing On My Mind (with Ronan Keating)
TTITLE6=This Love
TTITLE7=But I Do Love You
TTITLE8=Written In The Stars (with Elton John)
TTITLE9=Suddenly
TTITLE10=The Right Kind Of Wrong
TTITLE11=Commitment
TTITLE12=Please Remember
TTITLE13=Crazy
TTITLE14=Blue
TTITLE15=Looking Through Your Eyes
TTITLE16=You Light Up My Life
TTITLE17=One Way Ticket (Because I Can)
TTITLE18=How Do I Live [Mr Mig Dance Radio Edit]
TTITLE19=Can't Fight The Moonlight [Latino Mix]
EXTD=YEAR: 2004 ID3G: 2
EXTT0=
EXTT1=
EXTT2=
EXTT3=
EXTT4=
EXTT5=
EXTT6=
EXTT7=
EXTT8=
EXTT9=
EXTT10=
EXTT11=
EXTT12=
EXTT13=
EXTT14=
EXTT15=
EXTT16=
EXTT17=
EXTT18=
EXTT19=
PLAYORDER=
